
<svg width="188px" height="17px" viewBox="0 0 188 17" version="1.1" xmlns="http://www.w3.org/2000/svg" xmlns:xlink="http://www.w3.org/1999/xlink">
    <g id="FB-Microsite" stroke="none" stroke-width="1" fill="none" fill-rule="evenodd">
        <g transform="translate(-25.000000, -27.000000)" id="Group-19">
            <g transform="translate(25.000000, 27.000000)">
                <path d="M132.800803,11.9180945 C135.537274,11.9180945 137.423323,10.6039712 137.423323,6.82880685 C137.423323,3.05340959 135.537274,1.73951918 132.800803,1.73951918 L130.1937,1.73951918 L130.1937,11.9180945 L132.800803,11.9180945 Z M128.640373,0.351573973 L132.726813,0.351573973 C136.184571,0.351573973 138.976417,2.16521781 138.976417,6.82880685 C138.976417,11.4923959 136.184571,13.3058068 132.726813,13.3058068 L128.640373,13.3058068 L128.640373,0.351573973 Z" id="Fill-1" fill="#344854"></path>
                <path d="M148.959776,7.47650685 C148.812028,6.2180411 148.183345,4.6819863 145.871969,4.6819863 C144.485469,4.6819863 143.006132,5.53338356 142.691791,7.47650685 L148.959776,7.47650685 Z M141.157078,8.4760137 C141.157078,5.82936986 142.950756,3.34946575 145.871969,3.34946575 C149.163365,3.34946575 150.420499,5.75531507 150.420499,8.12413699 L150.420499,8.80879452 L142.6178,8.80879452 C142.710404,10.7519178 143.930543,12.158726 145.890583,12.158726 C147.480672,12.158726 148.22034,11.4368082 148.775033,10.6224384 L149.903033,11.3997808 C149.329726,12.2879726 148.127969,13.4910137 145.890583,13.4910137 C143.338855,13.4910137 141.157078,11.8252466 141.157078,8.4760137 Z" id="Fill-3" fill="#344854"></path>
                <path d="M152.231534,11.2704178 L153.544509,10.5855274 C154.080356,11.547774 154.801643,12.1586096 156.243752,12.1586096 C157.797079,12.1586096 158.592123,11.455089 158.592123,10.5485 C158.592123,9.58625342 157.81546,9.25323973 155.929643,8.95702055 C154.17296,8.67919863 152.712237,7.93911644 152.712237,6.05141781 C152.712237,4.3304589 154.413311,3.34958219 156.169995,3.34958219 C157.81546,3.34958219 158.998836,3.97881507 159.757118,4.88563699 L158.721722,5.77382877 C158.18541,5.12619863 157.371752,4.68186986 156.225371,4.68186986 C155.005,4.68186986 154.136198,5.20025342 154.136198,6.05141781 C154.136198,7.08795205 155.023613,7.38393836 156.761683,7.69855479 C158.573742,8.03156849 160.052846,8.54971918 160.052846,10.4930753 C160.052846,12.2510616 158.629118,13.4908973 156.225371,13.4908973 C154.616668,13.4908973 152.915594,12.6953904 152.231534,11.2704178" id="Fill-5" fill="#344854"></path>
                <path d="M162.751693,13.3057137 L164.230797,13.3057137 L164.230797,3.5346726 L162.751693,3.5346726 L162.751693,13.3057137 Z M162.640708,1.98022055 L164.341782,1.98022055 L164.341782,6.98630137e-05 L162.640708,6.98630137e-05 L162.640708,1.98022055 Z" id="Fill-7" fill="#344854"></path>
                <path d="M174.732435,8.36490822 C174.732435,6.31046986 173.660277,4.68196301 171.552257,4.68196301 C169.444237,4.68196301 168.408841,6.31046986 168.408841,8.36490822 C168.408841,10.4188808 169.444237,12.0473877 171.552257,12.0473877 C173.660277,12.0473877 174.732435,10.4188808 174.732435,8.36490822 Z M176.1194,3.53457945 L176.1194,12.2509219 C176.1194,14.8973329 174.658678,16.8220589 171.496881,16.8220589 C169.814188,16.8220589 168.298089,16.1925932 167.262693,15.0268123 L168.372079,13.9353192 C169.203886,14.9713877 170.331886,15.4895384 171.496881,15.4895384 C173.863633,15.4895384 174.640297,14.0461685 174.640297,12.2141274 L174.640297,11.899511 C173.882014,12.8801548 172.791009,13.3799082 171.441272,13.3799082 C168.723415,13.3799082 166.929737,11.2516479 166.929737,8.36490822 C166.929737,5.47793562 168.723415,3.34944247 171.441272,3.34944247 C172.920608,3.34944247 173.863633,3.81216849 174.436707,4.51545616 L174.788044,3.53457945 L176.1194,3.53457945 Z" id="Fill-9" fill="#344854"></path>
                <path d="M187.822354,6.86576438 L187.822354,13.305737 L186.34325,13.305737 L186.34325,6.90279178 C186.34325,5.49644932 185.658958,4.68207945 184.253844,4.68207945 C182.146057,4.68207945 180.925453,6.01436712 180.925453,8.6055863 L180.925453,13.305737 L179.446349,13.305737 L179.446349,3.53469589 L180.777705,3.53469589 L181.221413,4.8115589 C181.79472,4.07124384 182.978097,3.3495589 184.493963,3.3495589 C186.990314,3.3495589 187.822354,4.68207945 187.822354,6.86576438" id="Fill-10" fill="#344854"></path>
                <path d="M9.61405941,0.649283562 L9.61405941,2.33880411 C9.61405941,2.44895479 9.54053465,2.52231096 9.4304802,2.52231096 L2.18317327,2.52231096 L2.18317327,5.97470822 L8.16473762,5.97470822 C8.27479208,5.97470822 8.34808416,6.04829726 8.34808416,6.15844795 L8.34808416,7.84796849 C8.34808416,7.95811918 8.27479208,8.03147534 8.16473762,8.03147534 L2.18317327,8.03147534 L2.18317327,13.1365986 C2.18317327,13.2467493 2.11011386,13.3201055 1.99982673,13.3201055 L0.183346535,13.3201055 C0.0732920792,13.3201055 0,13.2467493 0,13.1365986 L0,0.649283562 C0,0.539132877 0.0732920792,0.465543836 0.183346535,0.465543836 L9.4304802,0.465543836 C9.54053465,0.465543836 9.61405941,0.539132877 9.61405941,0.649283562" id="Fill-11" fill="#677B80"></path>
                <path d="M20.5580094,7.88448356 C19.8883757,6.02985342 19.14545,4.17499041 18.3836777,2.48546986 L17.9527668,2.48546986 C17.1912272,4.17499041 16.4389946,6.02985342 15.7693609,7.88448356 L20.5580094,7.88448356 Z M24.4017718,13.3200589 L22.401945,13.3200589 C22.2918906,13.3200589 22.2185985,13.2648671 22.1911431,13.1547164 C21.9249649,12.0988534 21.6038757,10.9880315 21.23695,9.86766164 L15.0997272,9.86766164 C14.7328015,10.9880315 14.4114797,12.0988534 14.1546084,13.1547164 C14.127153,13.2648671 14.0538609,13.3200589 13.9438064,13.3200589 L12.0172718,13.3200589 C11.8888361,13.3200589 11.8153114,13.2467027 11.8520738,13.1181548 C13.0079946,9.02301781 14.7693312,4.50567534 16.549049,0.704428767 C16.631648,0.529771233 16.7326282,0.465730137 16.9069005,0.465730137 L19.5121431,0.465730137 C19.6864153,0.465730137 19.7873955,0.529771233 19.8699946,0.704428767 C21.6680936,4.49636027 23.4019748,9.02301781 24.5669698,13.1181548 C24.6037322,13.2467027 24.5302074,13.3200589 24.4017718,13.3200589 Z" id="Fill-12" fill="#677B80"></path>
                <path d="M27.6856525,7.00311507 C27.6856525,3.01812877 30.3092762,0.226868493 34.0522911,0.226868493 L34.3273109,0.226868493 C36.6759149,0.226868493 38.492395,1.42059452 39.4554297,3.14667671 C39.5196475,3.2568274 39.5012663,3.3488137 39.3912119,3.4037726 L37.7766921,4.20253973 C37.6666376,4.25773151 37.528895,4.25773151 37.455603,4.12010137 C36.776895,2.9447726 35.7584842,2.32043014 34.2540188,2.32043014 L33.9787663,2.32043014 C31.6210881,2.32043014 29.9974941,4.19345753 29.9974941,6.91136164 C29.9974941,9.63811507 31.5936327,11.4654986 33.9787663,11.4654986 L34.2540188,11.4654986 C35.7952465,11.4654986 36.694296,10.9419918 37.3823109,10.1432247 C37.4739842,10.0421562 37.5749644,10.0239918 37.6850188,10.0789507 L39.3453752,10.8870329 C39.4095931,10.9235945 39.4370485,10.9694712 39.4370485,11.0153479 C39.4370485,11.0614575 39.4186673,11.0982521 39.3821376,11.153211 C38.3639594,12.6405945 36.529098,13.5588274 34.2907812,13.5588274 L34.0155287,13.5588274 C30.208296,13.5588274 27.6856525,10.9419918 27.6856525,7.00311507" id="Fill-13" fill="#677B80"></path>
                <path d="M54.0689629,11.4471014 L54.0689629,13.1366219 C54.0689629,13.2467726 53.9954381,13.3201288 53.8853837,13.3201288 L44.2529431,13.3201288 C44.1428886,13.3201288 44.0693639,13.2467726 44.0693639,13.1366219 L44.0693639,0.649306849 C44.0693639,0.539156164 44.1428886,0.465567123 44.2529431,0.465567123 L53.7201856,0.465567123 C53.8304728,0.465567123 53.9037649,0.539156164 53.9037649,0.649306849 L53.9037649,2.3388274 C53.9037649,2.44897808 53.8304728,2.52233425 53.7201856,2.52233425 L46.2527698,2.52233425 L46.2527698,5.86434795 L52.3257748,5.86434795 C52.4358292,5.86434795 52.509354,5.93793699 52.509354,6.04808767 L52.509354,7.71921096 C52.509354,7.82936164 52.4358292,7.90295068 52.3257748,7.90295068 L46.2527698,7.90295068 L46.2527698,11.2633616 L53.8853837,11.2633616 C53.9954381,11.2633616 54.0689629,11.3367178 54.0689629,11.4471014" id="Fill-14" fill="#677B80"></path>
                <path d="M68.4162015,9.60139041 C68.4162015,8.40789726 67.6272064,7.86599315 65.8933252,7.86599315 L61.5725827,7.86599315 L61.5725827,11.3183904 L65.8933252,11.3183904 C67.6548946,11.3183904 68.4162015,10.8041986 68.4162015,9.60139041 M65.2788351,2.46721233 L61.5725827,2.46721233 L61.5725827,5.91960959 L65.2788351,5.91960959 C66.9391916,5.91960959 67.7004985,5.37793836 67.7004985,4.1935274 C67.7004985,3.00888356 66.9391916,2.46721233 65.2788351,2.46721233 M70.6545183,9.79421233 C70.6545183,12.0438014 68.9299441,13.3201986 65.884251,13.3201986 L59.5727559,13.3201986 C59.4627015,13.3201986 59.3891767,13.2466096 59.3891767,13.1366918 L59.3891767,0.649376712 C59.3891767,0.538993151 59.4627015,0.465636986 59.5727559,0.465636986 L65.3246718,0.465636986 C68.2877658,0.465636986 69.9022856,1.64096575 69.9022856,3.7894863 C69.9022856,5.2035137 69.1868153,6.13082877 67.7374936,6.56234932 C69.77385,6.99386986 70.6545183,8.21507534 70.6545183,9.79421233" id="Fill-15" fill="#677B80"></path>
                <path d="M81.3781965,11.4655219 C84.0111272,11.4655219 85.6714837,9.65653562 85.6714837,6.89298767 C85.6714837,4.12920685 84.0111272,2.32022055 81.3781965,2.32022055 L81.1029441,2.32022055 C78.4700134,2.32022055 76.8096569,4.12920685 76.8096569,6.89298767 C76.8096569,9.65653562 78.4700134,11.4655219 81.1029441,11.4655219 L81.3781965,11.4655219 Z M74.498048,6.89298767 C74.498048,3.01815205 77.0665282,0.226891781 81.1029441,0.226891781 L81.3781965,0.226891781 C85.4146124,0.226891781 87.9833252,3.01815205 87.9833252,6.89298767 C87.9833252,10.7675904 85.4146124,13.5588507 81.3781965,13.5588507 L81.1029441,13.5588507 C77.0665282,13.5588507 74.498048,10.7675904 74.498048,6.89298767 Z" id="Fill-16" fill="#677B80"></path>
                <path d="M98.5878515,11.4655219 C101.22055,11.4655219 102.880906,9.65653562 102.880906,6.89298767 C102.880906,4.12920685 101.22055,2.32022055 98.5878515,2.32022055 L98.3123663,2.32022055 C95.6796683,2.32022055 94.0193119,4.12920685 94.0193119,6.89298767 C94.0193119,9.65653562 95.6796683,11.4655219 98.3123663,11.4655219 L98.5878515,11.4655219 Z M91.7074703,6.89298767 C91.7074703,3.01815205 94.2761832,0.226891781 98.3123663,0.226891781 L98.5878515,0.226891781 C102.624267,0.226891781 105.19298,3.01815205 105.19298,6.89298767 C105.19298,10.7675904 102.624267,13.5588507 98.5878515,13.5588507 L98.3123663,13.5588507 C94.2761832,13.5588507 91.7074703,10.7675904 91.7074703,6.89298767 Z" id="Fill-17" fill="#677B80"></path>
                <path d="M121.01695,13.3201288 L118.650197,13.3201288 C118.494073,13.3201288 118.430088,13.2833342 118.328875,13.1641014 C116.668751,11.2084027 114.705454,9.2617863 113.035791,7.82936164 L111.971776,7.82936164 L111.971776,13.1366219 C111.971776,13.2467726 111.898484,13.3201288 111.788197,13.3201288 L109.971717,13.3201288 C109.861895,13.3201288 109.78837,13.2467726 109.78837,13.1366219 L109.78837,0.649306849 C109.78837,0.539156164 109.861895,0.465567123 109.971717,0.465567123 L111.788197,0.465567123 C111.898484,0.465567123 111.971776,0.539156164 111.971776,0.649306849 L111.971776,5.71763562 L113.054172,5.71763562 C114.843197,4.10170411 116.494479,2.35699178 117.842821,0.603430137 C117.934494,0.483964384 118.008019,0.465567123 118.118073,0.465567123 L120.35639,0.465567123 C120.466677,0.465567123 120.521588,0.520758904 120.521588,0.594347945 C120.521588,0.630909589 120.503207,0.676786301 120.45737,0.731978082 C118.484999,3.16507397 116.531242,5.15756712 114.723836,6.70014247 C116.998682,8.62836164 119.154633,10.7766493 121.118162,13.0905123 C121.218677,13.2099781 121.163766,13.3201288 121.01695,13.3201288" id="Fill-18" fill="#677B80"></path>
            </g>
        </g>
    </g>
</svg>