<?xml version="1.0" encoding="UTF-8"?>
<svg width="160px" height="17px" viewBox="0 0 160 17" version="1.1" xmlns="http://www.w3.org/2000/svg" xmlns:xlink="http://www.w3.org/1999/xlink">
    <!-- Generator: Sketch 64 (93537) - https://sketch.com -->
    <title>facebook-design-logo</title>
    <desc>Created with Sketch.</desc>
    <g id="页面-1" stroke="none" stroke-width="1" fill="none" fill-rule="evenodd">
        <g id="facebook-design-logo" fill-rule="nonzero">
            <path d="M104.800803,11.9180945 C107.537274,11.9180945 109.423323,10.6039712 109.423323,6.82880685 C109.423323,3.05340959 107.537274,1.73951918 104.800803,1.73951918 L102.1937,1.73951918 L102.1937,11.9180945 L104.800803,11.9180945 Z M100.640373,0.35157397 L104.726813,0.35157397 C108.184571,0.35157397 110.976417,2.16521781 110.976417,6.82880685 C110.976417,11.4923959 108.184571,13.3058068 104.726813,13.3058068 L100.640373,13.3058068 L100.640373,0.35157397 Z" id="Fill-1" fill="#344854"></path>
            <path d="M120.959776,7.47650685 C120.812028,6.2180411 120.183345,4.6819863 117.871969,4.6819863 C116.485469,4.6819863 115.006132,5.53338356 114.691791,7.47650685 L120.959776,7.47650685 Z M113.157078,8.4760137 C113.157078,5.82936986 114.950756,3.34946575 117.871969,3.34946575 C121.163365,3.34946575 122.420499,5.75531507 122.420499,8.12413699 L122.420499,8.80879452 L114.6178,8.80879452 C114.710404,10.7519178 115.930543,12.158726 117.890583,12.158726 C119.480672,12.158726 120.22034,11.4368082 120.775033,10.6224384 L121.903033,11.3997808 C121.329726,12.2879726 120.127969,13.4910137 117.890583,13.4910137 C115.338855,13.4910137 113.157078,11.8252466 113.157078,8.4760137 Z" id="Fill-3" fill="#344854"></path>
            <path d="M124.231534,11.2704178 L125.544509,10.5855274 C126.080356,11.547774 126.801643,12.1586096 128.243752,12.1586096 C129.797079,12.1586096 130.592123,11.455089 130.592123,10.5485 C130.592123,9.5862534 129.81546,9.2532397 127.929643,8.95702055 C126.17296,8.67919863 124.712237,7.93911644 124.712237,6.05141781 C124.712237,4.3304589 126.413311,3.34958219 128.169995,3.34958219 C129.81546,3.34958219 130.998836,3.97881507 131.757118,4.88563699 L130.721722,5.77382877 C130.18541,5.12619863 129.371752,4.68186986 128.225371,4.68186986 C127.005,4.68186986 126.136198,5.20025342 126.136198,6.05141781 C126.136198,7.08795205 127.023613,7.38393836 128.761683,7.69855479 C130.573742,8.03156849 132.052846,8.54971918 132.052846,10.4930753 C132.052846,12.2510616 130.629118,13.4908973 128.225371,13.4908973 C126.616668,13.4908973 124.915594,12.6953904 124.231534,11.2704178" id="Fill-5" fill="#344854"></path>
            <path d="M134.751693,13.3057137 L136.230797,13.3057137 L136.230797,3.5346726 L134.751693,3.5346726 L134.751693,13.3057137 Z M134.640708,1.98022055 L136.341782,1.98022055 L136.341782,6.986e-05 L134.640708,6.986e-05 L134.640708,1.98022055 Z" id="Fill-7" fill="#344854"></path>
            <path d="M146.732435,8.36490822 C146.732435,6.31046986 145.660277,4.68196301 143.552257,4.68196301 C141.444237,4.68196301 140.408841,6.31046986 140.408841,8.36490822 C140.408841,10.4188808 141.444237,12.0473877 143.552257,12.0473877 C145.660277,12.0473877 146.732435,10.4188808 146.732435,8.36490822 Z M148.1194,3.53457945 L148.1194,12.2509219 C148.1194,14.8973329 146.658678,16.8220589 143.496881,16.8220589 C141.814188,16.8220589 140.298089,16.1925932 139.262693,15.0268123 L140.372079,13.9353192 C141.203886,14.9713877 142.331886,15.4895384 143.496881,15.4895384 C145.863633,15.4895384 146.640297,14.0461685 146.640297,12.2141274 L146.640297,11.899511 C145.882014,12.8801548 144.791009,13.3799082 143.441272,13.3799082 C140.723415,13.3799082 138.929737,11.2516479 138.929737,8.36490822 C138.929737,5.47793562 140.723415,3.34944247 143.441272,3.34944247 C144.920608,3.34944247 145.863633,3.81216849 146.436707,4.51545616 L146.788044,3.53457945 L148.1194,3.53457945 Z" id="Fill-9" fill="#344854"></path>
            <path d="M159.822354,6.86576438 L159.822354,13.305737 L158.34325,13.305737 L158.34325,6.90279178 C158.34325,5.49644932 157.658958,4.68207945 156.253844,4.68207945 C154.146057,4.68207945 152.925453,6.01436712 152.925453,8.6055863 L152.925453,13.305737 L151.446349,13.305737 L151.446349,3.53469589 L152.777705,3.53469589 L153.221413,4.8115589 C153.79472,4.07124384 154.978097,3.3495589 156.493963,3.3495589 C158.990314,3.3495589 159.822354,4.68207945 159.822354,6.86576438" id="Fill-10" fill="#344854"></path>
            <path d="M2.24,13.304 L2.24,0.452 L0.296,0.452 L0.296,13.304 L2.24,13.304 Z M12.4422105,13.304 L12.4422105,3.638 L12.5142105,3.638 L19.1562105,13.304 L21.0642105,13.304 L21.0642105,0.452 L19.1022105,0.452 L19.1022105,10.01 L19.0302105,10.01 L12.4602105,0.452 L10.4802105,0.452 L10.4802105,13.304 L12.4422105,13.304 Z M33.9844211,13.556 C35.6044211,13.556 36.8644211,13.232 37.7644211,12.584 C38.6644211,11.918 39.1144211,11.018 39.1144211,9.866 C39.1144211,8.678 38.5564211,7.76 37.4584211,7.094 C36.9544211,6.788 35.8204211,6.374 34.0924211,5.834 C32.8864211,5.474 32.1484211,5.204 31.8604211,5.042 C31.2124211,4.7 30.9064211,4.25 30.9064211,3.674 C30.9064211,3.026 31.1764211,2.558 31.7344211,2.27 C32.1844211,2.018 32.8324211,1.892 33.6784211,1.892 C34.6504211,1.892 35.3704211,2.072 35.8744211,2.45 C36.3784211,2.81 36.7024211,3.422 36.8824211,4.25 L38.8264211,4.25 C38.7004211,2.846 38.1964211,1.82 37.2964211,1.154 C36.4504211,0.506 35.2804211,0.2 33.7864211,0.2 C32.4184211,0.2 31.2844211,0.506 30.3844211,1.118 C29.4304211,1.766 28.9624211,2.648 28.9624211,3.782 C28.9624211,4.898 29.4484211,5.762 30.4384211,6.356 C30.8344211,6.572 31.8064211,6.914 33.3904211,7.418 C34.8124211,7.85 35.6584211,8.138 35.9464211,8.282 C36.7564211,8.696 37.1704211,9.254 37.1704211,9.974 C37.1704211,10.55 36.8824211,11 36.3064211,11.324 C35.7304211,11.648 34.9564211,11.828 33.9844211,11.828 C32.9044211,11.828 32.1124211,11.63 31.5904211,11.234 C31.0144211,10.802 30.6544211,10.064 30.5104211,9.056 L28.5664211,9.056 C28.6744211,10.676 29.2504211,11.864 30.3124211,12.62 C31.1944211,13.232 32.4184211,13.556 33.9844211,13.556 Z M48.5786316,13.304 L48.5786316,8.3 L51.9086316,8.3 C54.9866316,8.3 56.5346316,6.986 56.5346316,4.358 C56.5346316,1.748 55.0046316,0.452 51.9446316,0.452 L46.6166316,0.452 L46.6166316,13.304 L48.5786316,13.304 Z M51.7826316,6.626 L48.5786316,6.626 L48.5786316,2.126 L51.7826316,2.126 C52.7366316,2.126 53.4386316,2.306 53.8886316,2.666 C54.3386316,2.99 54.5726316,3.566 54.5726316,4.358 C54.5726316,5.15 54.3386316,5.726 53.9066316,6.086 C53.4566316,6.446 52.7546316,6.626 51.7826316,6.626 Z M69.3468421,13.556 C71.0388421,13.556 72.3348421,13.106 73.2528421,12.242 C74.1708421,11.36 74.6388421,10.082 74.6388421,8.408 L74.6388421,0.452 L72.6768421,0.452 L72.6768421,8.444 C72.6768421,9.596 72.4068421,10.442 71.8848421,11 C71.3448421,11.558 70.4988421,11.846 69.3468421,11.846 C68.1768421,11.846 67.3308421,11.558 66.7908421,11 C66.2508421,10.442 65.9988421,9.596 65.9988421,8.444 L65.9988421,0.452 L64.0368421,0.452 L64.0368421,8.408 C64.0368421,10.082 64.5048421,11.36 65.4408421,12.26 C66.3408421,13.124 67.6368421,13.556 69.3468421,13.556 Z M84.8050526,13.304 L84.8050526,7.994 L88.2790526,7.994 C89.0170526,7.994 89.5750526,8.138 89.9710526,8.462 C90.3490526,8.786 90.5830526,9.29 90.6550526,10.01 L90.8170526,11.612 C90.8890526,12.332 91.0690526,12.908 91.3750526,13.304 L93.4990526,13.304 C93.0670526,12.836 92.8150526,12.206 92.7430526,11.414 L92.5270526,9.362 C92.3830526,8.102 91.7530526,7.346 90.6010526,7.094 L90.6010526,7.058 C91.3030526,6.878 91.8610526,6.5 92.2750526,5.924 C92.6350526,5.402 92.8150526,4.808 92.8150526,4.124 C92.8150526,2.9 92.4190526,1.982 91.6270526,1.334 C90.8710526,0.74 89.8270526,0.452 88.5310526,0.452 L82.8430526,0.452 L82.8430526,13.304 L84.8050526,13.304 Z M88.2790526,6.32 L84.8050526,6.32 L84.8050526,2.126 L88.2610526,2.126 C89.1610526,2.126 89.8090526,2.288 90.2410526,2.63 C90.6370526,2.954 90.8530526,3.476 90.8530526,4.196 C90.8530526,4.88 90.6370526,5.402 90.2230526,5.762 C89.7910526,6.122 89.1430526,6.32 88.2790526,6.32 Z" id="INSPUR" fill="#677B80"></path>
        </g>
    </g>
</svg>