<?xml version="1.0" encoding="UTF-8"?>
<svg width="143px" height="17px" viewBox="0 0 143 17" version="1.1" xmlns="http://www.w3.org/2000/svg" xmlns:xlink="http://www.w3.org/1999/xlink">
    <!-- Generator: Sketch 64 (93537) - https://sketch.com -->
    <title>facebook-design-logo</title>
    <desc>Created with Sketch.</desc>
    <g id="页面-1" stroke="none" stroke-width="1" fill="none" fill-rule="evenodd">
        <g id="facebook-design-logo">
            <path d="M87.800803,11.9180945 C90.537274,11.9180945 92.423323,10.6039712 92.423323,6.82880685 C92.423323,3.05340959 90.537274,1.73951918 87.800803,1.73951918 L85.1937,1.73951918 L85.1937,11.9180945 L87.800803,11.9180945 Z M83.640373,0.35157397 L87.726813,0.35157397 C91.184571,0.35157397 93.976417,2.16521781 93.976417,6.82880685 C93.976417,11.4923959 91.184571,13.3058068 87.726813,13.3058068 L83.640373,13.3058068 L83.640373,0.35157397 Z" id="Fill-1" fill="#344854" fill-rule="nonzero"></path>
            <path d="M103.959776,7.47650685 C103.812028,6.2180411 103.183345,4.6819863 100.871969,4.6819863 C99.485469,4.6819863 98.006132,5.53338356 97.691791,7.47650685 L103.959776,7.47650685 Z M96.157078,8.4760137 C96.157078,5.82936986 97.950756,3.34946575 100.871969,3.34946575 C104.163365,3.34946575 105.420499,5.75531507 105.420499,8.12413699 L105.420499,8.80879452 L97.6178,8.80879452 C97.710404,10.7519178 98.930543,12.158726 100.890583,12.158726 C102.480672,12.158726 103.22034,11.4368082 103.775033,10.6224384 L104.903033,11.3997808 C104.329726,12.2879726 103.127969,13.4910137 100.890583,13.4910137 C98.338855,13.4910137 96.157078,11.8252466 96.157078,8.4760137 Z" id="Fill-3" fill="#344854" fill-rule="nonzero"></path>
            <path d="M107.231534,11.2704178 L108.544509,10.5855274 C109.080356,11.547774 109.801643,12.1586096 111.243752,12.1586096 C112.797079,12.1586096 113.592123,11.455089 113.592123,10.5485 C113.592123,9.5862534 112.81546,9.2532397 110.929643,8.95702055 C109.17296,8.67919863 107.712237,7.93911644 107.712237,6.05141781 C107.712237,4.3304589 109.413311,3.34958219 111.169995,3.34958219 C112.81546,3.34958219 113.998836,3.97881507 114.757118,4.88563699 L113.721722,5.77382877 C113.18541,5.12619863 112.371752,4.68186986 111.225371,4.68186986 C110.005,4.68186986 109.136198,5.20025342 109.136198,6.05141781 C109.136198,7.08795205 110.023613,7.38393836 111.761683,7.69855479 C113.573742,8.03156849 115.052846,8.54971918 115.052846,10.4930753 C115.052846,12.2510616 113.629118,13.4908973 111.225371,13.4908973 C109.616668,13.4908973 107.915594,12.6953904 107.231534,11.2704178" id="Fill-5" fill="#344854" fill-rule="nonzero"></path>
            <path d="M117.751693,13.3057137 L119.230797,13.3057137 L119.230797,3.5346726 L117.751693,3.5346726 L117.751693,13.3057137 Z M117.640708,1.98022055 L119.341782,1.98022055 L119.341782,6.986e-05 L117.640708,6.986e-05 L117.640708,1.98022055 Z" id="Fill-7" fill="#344854" fill-rule="nonzero"></path>
            <path d="M129.732435,8.36490822 C129.732435,6.31046986 128.660277,4.68196301 126.552257,4.68196301 C124.444237,4.68196301 123.408841,6.31046986 123.408841,8.36490822 C123.408841,10.4188808 124.444237,12.0473877 126.552257,12.0473877 C128.660277,12.0473877 129.732435,10.4188808 129.732435,8.36490822 Z M131.1194,3.53457945 L131.1194,12.2509219 C131.1194,14.8973329 129.658678,16.8220589 126.496881,16.8220589 C124.814188,16.8220589 123.298089,16.1925932 122.262693,15.0268123 L123.372079,13.9353192 C124.203886,14.9713877 125.331886,15.4895384 126.496881,15.4895384 C128.863633,15.4895384 129.640297,14.0461685 129.640297,12.2141274 L129.640297,11.899511 C128.882014,12.8801548 127.791009,13.3799082 126.441272,13.3799082 C123.723415,13.3799082 121.929737,11.2516479 121.929737,8.36490822 C121.929737,5.47793562 123.723415,3.34944247 126.441272,3.34944247 C127.920608,3.34944247 128.863633,3.81216849 129.436707,4.51545616 L129.788044,3.53457945 L131.1194,3.53457945 Z" id="Fill-9" fill="#344854" fill-rule="nonzero"></path>
            <path d="M142.822354,6.86576438 L142.822354,13.305737 L141.34325,13.305737 L141.34325,6.90279178 C141.34325,5.49644932 140.658958,4.68207945 139.253844,4.68207945 C137.146057,4.68207945 135.925453,6.01436712 135.925453,8.6055863 L135.925453,13.305737 L134.446349,13.305737 L134.446349,3.53469589 L135.777705,3.53469589 L136.221413,4.8115589 C136.79472,4.07124384 137.978097,3.3495589 139.493963,3.3495589 C141.990314,3.3495589 142.822354,4.68207945 142.822354,6.86576438" id="Fill-10" fill="#344854" fill-rule="nonzero"></path>
            <g id="编组-6" transform="translate(0.000000, 0.200000)" fill="#027AFF">
                <g id="S-2" transform="translate(22.081339, 0.000000)" fill-rule="nonzero">
                    <path d="M5.70235485,13 C6.83713023,13 7.79802873,12.8164352 8.58505036,12.4493056 C9.37207199,12.0821759 9.95776251,11.5946759 10.3421219,10.9868056 C10.7264813,10.3789352 10.918661,9.71990741 10.918661,9.00972222 C10.918661,7.80601852 10.543453,6.93032407 9.79303705,6.38263889 C9.04262108,5.8349537 7.94140089,5.48888889 6.48937649,5.34444444 C5.7084558,5.26018519 5.08005868,5.16990741 4.60418514,5.07361111 C4.12831159,4.97731481 3.74090172,4.82083333 3.44195552,4.60416667 C3.14300932,4.3875 2.99353622,4.09259259 2.99353622,3.71944444 C2.99353622,3.31018519 3.18876639,2.97314815 3.57922673,2.70833333 C3.96968708,2.44351852 4.51267099,2.31111111 5.20817848,2.31111111 C6.4559309,2.31111111 7.42446093,2.74547468 8.11376857,3.61420181 C8.11376857,3.61420181 8.28305369,3.79818726 8.44242648,3.66277949 C9.33507235,3.07572207 9.9273941,2.68617579 10.2193917,2.49414066 C10.417425,2.38023376 10.2784327,2.19288635 10.2784327,2.19288635 C9.88477958,1.55664071 9.31506926,1.08391377 8.51183905,0.668055556 C7.6516061,0.222685185 6.58089063,0 5.29969263,0 C4.33574365,0 3.48466212,0.156481481 2.74644803,0.469444444 C2.00823395,0.782407407 1.43779579,1.22175926 1.03513356,1.7875 C0.632471327,2.35324074 0.431140213,3.00324074 0.431140213,3.7375 C0.431140213,4.83287037 0.839903385,5.68148148 1.65742973,6.28333333 C2.47495607,6.88518519 3.47551071,7.23425926 4.65909362,7.33055556 C5.56203317,7.40277778 6.27279301,7.50208333 6.79137316,7.62847222 C7.3099533,7.75486111 7.68821176,7.92939815 7.92614853,8.15208333 C8.1640853,8.37476852 8.28305369,8.66666667 8.28305369,9.02777778 C8.28305369,9.58148148 8.06036928,9.99675926 7.61500045,10.2736111 C7.16963162,10.550463 6.53208309,10.6888889 5.70235485,10.6888889 C4.8970304,10.6888889 4.20457338,10.5023148 3.62498381,10.1291667 C3.14044053,9.8172107 2.75610212,9.40430042 2.47196859,8.89043583 C2.41623396,8.78963797 2.2325343,8.62443542 1.9190347,8.77085765 C1.19400725,9.10948687 0.50638379,9.47477722 0.225792394,9.59947639 C0.225792394,9.59947639 -0.113260376,9.74334717 0.0395867521,10.0071409 C0.516084464,10.8295123 1.12028432,11.5637246 1.98688065,12.10625 C2.93862773,12.7020833 4.17711914,13 5.70235485,13 Z" id="S"></path>
                </g>
                <g id="矩形-2">
                    <rect id="矩形" x="0" y="0" width="2.4" height="13"></rect>
                </g>
                <g id="编组-4" transform="translate(37.000000, 0.000000)">
                    <g id="编组-2" transform="translate(0.000000, 0.000000)">
                        <path d="M6.2,0 C8.29868205,-1.27370006e-15 10,1.70131795 10,3.8 C10,5.89868205 8.29868205,7.6 6.2,7.6 L2.399,7.6 L2.4,12.8 C2.4,12.9104569 2.31045695,13 2.2,13 L0.2,13 C0.08954305,13 -8.37927301e-13,12.9104569 -8.37996339e-13,12.8 L-8.37996339e-13,0.2 C-8.38009866e-13,0.08954305 0.08954305,1.86824066e-16 0.2,0 L6.2,0 Z M2.399,5.6 L6,5.6 C6.8836556,5.6 7.6,4.8836556 7.6,4 C7.6,3.1163444 6.8836556,2.4 6,2.4 L2.399,2.4 L2.399,5.6 Z" id="形状结合"></path>
                    </g>
                </g>
                <g id="编组-2" transform="translate(66.000000, 0.000000)">
                    <g id="编组-5">
                        <path d="M6.2,0 C8.29868205,-1.27370006e-15 10,1.70131795 10,3.8 C10,5.54068863 8.82959983,7.00801566 7.23282112,7.45795946 L10.2290127,12.7007722 C10.2838147,12.7966757 10.2504953,12.9188466 10.1545919,12.9736486 C10.1243723,12.9909169 10.0901695,13 10.0553641,13 L8.11606451,13 C8.04429314,13 7.97802445,12.9615428 7.94241588,12.8992278 L4.914,7.6 L2.399,7.6 L2.4,12.8 C2.4,12.9104569 2.31045695,13 2.2,13 L0.2,13 C0.08954305,13 -2.28015561e-14,12.9104569 -2.28705943e-14,12.8 L-2.28705943e-14,0.2 C-2.28841214e-14,0.08954305 0.08954305,1.86824066e-16 0.2,0 L6.2,0 Z M6,2.4 L2.399,2.4 L2.399,5.6 L6,5.6 C6.8836556,5.6 7.6,4.8836556 7.6,4 C7.6,3.1163444 6.8836556,2.4 6,2.4 Z" id="形状结合"></path>
                    </g>
                </g>
                <g id="编组" transform="translate(7.000000, 0.000000)">
                    <path d="M8.48776941,13 C8.42043559,13 8.35762125,12.9661183 8.32063803,12.9098503 L2.40076862,3.903 L2.40076862,12.8 C2.40076862,12.9104569 2.31122557,13 2.20076862,13 L0.200768617,13 C0.0903116668,13 0.000768616769,12.9104569 0.000768616769,12.8 L0.000768616769,0.2 C0.000768616769,0.103861544 0.0686014691,0.0235662987 0.159016931,0.00436450829 C0.170807261,0.00280430359 0.18243957,0.00106435915 0.194194455,0.000359058997 C0.196005548,4.17963101e-05 0.198382201,4.03632242e-18 0.200768617,0 L2.4919605,0 C2.55918922,-2.89905471e-16 2.62192016,0.0337766949 2.65892888,0.0899020448 L8.59976862,9.099 L8.6,0.2 C8.6,0.08954305 8.68954305,1.86824066e-16 8.8,0 L10.8,0 C10.9104569,-2.02906125e-17 11,0.08954305 11,0.2 L11,12.8 C11.0001045,12.8122092 10.9995008,12.8196838 10.9984841,12.8270966 L11,12.8 C11,12.8211513 10.9967166,12.8415358 10.9906317,12.8606715 C10.9879001,12.8700829 10.9843504,12.8789641 10.9801669,12.8875758 C10.9760433,12.895415 10.9716176,12.90314 10.9667148,12.9105207 C10.962156,12.9179522 10.956701,12.9251033 10.9507295,12.9319042 C10.9410535,12.9425562 10.9300919,12.9526341 10.9181174,12.9614116 C10.9158577,12.9632898 10.9131702,12.9651572 10.9104233,12.9669684 C10.9017701,12.9722591 10.8981133,12.9743728 10.8943857,12.9763718 L10.9104233,12.9669684 C10.8930548,12.9784211 10.8741029,12.9870311 10.8542801,12.9925848 C10.8535542,12.9927504 10.8528821,12.9929355 10.8522087,12.9931171 C10.8354129,12.9976696 10.8179564,13 10.8003254,13 L8.48776941,13 Z" id="形状结合"></path>
                </g>
                <g id="编组-3" transform="translate(51.000000, 0.000000)">
                    <path d="M8.795,0 L10.813,0.001 L10.8610983,0.00694614382 C10.9441451,0.0288909137 10.9890625,0.0949354518 11.0012734,0.188133228 L11,8.00158148 C11,10.7630052 8.76142375,13.0015815 6,13.0015815 L5,13.0015815 C2.23857625,13.0015815 -4.10271522e-15,10.7630052 -4.4408921e-15,8.00158148 L-4.38538095e-15,0.246555458 C-4.38538095e-15,0.124154539 0.0448332893,0.0356343348 0.143630416,0.00952762576 L0.209457397,0.00158148193 L2.1952713,0.00158148193 C2.3209191,0.00158148193 2.3861572,0.0753422904 2.40127341,0.19071471 L2.4,7.50158148 C2.4,9.21366421 3.78791728,10.6015815 5.5,10.6015815 C7.15304539,10.6015815 8.50389611,9.30773232 8.59509266,7.67749351 L8.6,7.50158148 L8.60072434,0.174827373 C8.61536317,0.0886615149 8.65986402,0.027831511 8.73890172,0.00694614382 L8.795,0 Z" id="形状结合"></path>
                </g>
            </g>
        </g>
    </g>
</svg>