<?xml version="1.0" encoding="UTF-8"?>
<svg width="160px" height="18px" viewBox="0 0 160 18" version="1.1" xmlns="http://www.w3.org/2000/svg" xmlns:xlink="http://www.w3.org/1999/xlink">
    <!-- Generator: Sketch 64 (93537) - https://sketch.com -->
    <title>facebook-design-logo</title>
    <desc>Created with Sketch.</desc>
    <g id="页面-1" stroke="none" stroke-width="1" fill="none" fill-rule="evenodd">
        <g id="facebook-design-logo" fill-rule="nonzero">
            <path d="M104.800803,12.9180945 C107.537274,12.9180945 109.423323,11.6039712 109.423323,7.82880685 C109.423323,4.05340959 107.537274,2.73951918 104.800803,2.73951918 L102.1937,2.73951918 L102.1937,12.9180945 L104.800803,12.9180945 Z M100.640373,1.35157397 L104.726813,1.35157397 C108.184571,1.35157397 110.976417,3.16521781 110.976417,7.82880685 C110.976417,12.4923959 108.184571,14.3058068 104.726813,14.3058068 L100.640373,14.3058068 L100.640373,1.35157397 Z" id="Fill-1" fill="#344854"></path>
            <path d="M120.959776,8.47650685 C120.812028,7.2180411 120.183345,5.6819863 117.871969,5.6819863 C116.485469,5.6819863 115.006132,6.53338356 114.691791,8.47650685 L120.959776,8.47650685 Z M113.157078,9.4760137 C113.157078,6.82936986 114.950756,4.34946575 117.871969,4.34946575 C121.163365,4.34946575 122.420499,6.75531507 122.420499,9.12413699 L122.420499,9.80879452 L114.6178,9.80879452 C114.710404,11.7519178 115.930543,13.158726 117.890583,13.158726 C119.480672,13.158726 120.22034,12.4368082 120.775033,11.6224384 L121.903033,12.3997808 C121.329726,13.2879726 120.127969,14.4910137 117.890583,14.4910137 C115.338855,14.4910137 113.157078,12.8252466 113.157078,9.4760137 Z" id="Fill-3" fill="#344854"></path>
            <path d="M124.231534,12.2704178 L125.544509,11.5855274 C126.080356,12.547774 126.801643,13.1586096 128.243752,13.1586096 C129.797079,13.1586096 130.592123,12.455089 130.592123,11.5485 C130.592123,10.5862534 129.81546,10.2532397 127.929643,9.95702055 C126.17296,9.67919863 124.712237,8.93911644 124.712237,7.05141781 C124.712237,5.3304589 126.413311,4.34958219 128.169995,4.34958219 C129.81546,4.34958219 130.998836,4.97881507 131.757118,5.88563699 L130.721722,6.77382877 C130.18541,6.12619863 129.371752,5.68186986 128.225371,5.68186986 C127.005,5.68186986 126.136198,6.20025342 126.136198,7.05141781 C126.136198,8.08795205 127.023613,8.38393836 128.761683,8.69855479 C130.573742,9.03156849 132.052846,9.54971918 132.052846,11.4930753 C132.052846,13.2510616 130.629118,14.4908973 128.225371,14.4908973 C126.616668,14.4908973 124.915594,13.6953904 124.231534,12.2704178" id="Fill-5" fill="#344854"></path>
            <path d="M134.751693,14.3057137 L136.230797,14.3057137 L136.230797,4.5346726 L134.751693,4.5346726 L134.751693,14.3057137 Z M134.640708,2.98022055 L136.341782,2.98022055 L136.341782,1.00006986 L134.640708,1.00006986 L134.640708,2.98022055 Z" id="Fill-7" fill="#344854"></path>
            <path d="M146.732435,9.36490822 C146.732435,7.31046986 145.660277,5.68196301 143.552257,5.68196301 C141.444237,5.68196301 140.408841,7.31046986 140.408841,9.36490822 C140.408841,11.4188808 141.444237,13.0473877 143.552257,13.0473877 C145.660277,13.0473877 146.732435,11.4188808 146.732435,9.36490822 Z M148.1194,4.53457945 L148.1194,13.2509219 C148.1194,15.8973329 146.658678,17.8220589 143.496881,17.8220589 C141.814188,17.8220589 140.298089,17.1925932 139.262693,16.0268123 L140.372079,14.9353192 C141.203886,15.9713877 142.331886,16.4895384 143.496881,16.4895384 C145.863633,16.4895384 146.640297,15.0461685 146.640297,13.2141274 L146.640297,12.899511 C145.882014,13.8801548 144.791009,14.3799082 143.441272,14.3799082 C140.723415,14.3799082 138.929737,12.2516479 138.929737,9.36490822 C138.929737,6.47793562 140.723415,4.34944247 143.441272,4.34944247 C144.920608,4.34944247 145.863633,4.81216849 146.436707,5.51545616 L146.788044,4.53457945 L148.1194,4.53457945 Z" id="Fill-9" fill="#344854"></path>
            <path d="M159.822354,7.86576438 L159.822354,14.305737 L158.34325,14.305737 L158.34325,7.90279178 C158.34325,6.49644932 157.658958,5.68207945 156.253844,5.68207945 C154.146057,5.68207945 152.925453,7.01436712 152.925453,9.6055863 L152.925453,14.305737 L151.446349,14.305737 L151.446349,4.53469589 L152.777705,4.53469589 L153.221413,5.8115589 C153.79472,5.07124384 154.978097,4.3495589 156.493963,4.3495589 C158.990314,4.3495589 159.822354,5.68207945 159.822354,7.86576438" id="Fill-10" fill="#344854"></path>
            <path d="M2.24,13.804 L2.24,0.952 L0.296,0.952 L0.296,13.804 L2.24,13.804 Z M12.4422105,13.804 L12.4422105,4.138 L12.5142105,4.138 L19.1562105,13.804 L21.0642105,13.804 L21.0642105,0.952 L19.1022105,0.952 L19.1022105,10.51 L19.0302105,10.51 L12.4602105,0.952 L10.4802105,0.952 L10.4802105,13.804 L12.4422105,13.804 Z M33.9844211,14.056 C35.6044211,14.056 36.8644211,13.732 37.7644211,13.084 C38.6644211,12.418 39.1144211,11.518 39.1144211,10.366 C39.1144211,9.178 38.5564211,8.26 37.4584211,7.594 C36.9544211,7.288 35.8204211,6.874 34.0924211,6.334 C32.8864211,5.974 32.1484211,5.704 31.8604211,5.542 C31.2124211,5.2 30.9064211,4.75 30.9064211,4.174 C30.9064211,3.526 31.1764211,3.058 31.7344211,2.77 C32.1844211,2.518 32.8324211,2.392 33.6784211,2.392 C34.6504211,2.392 35.3704211,2.572 35.8744211,2.95 C36.3784211,3.31 36.7024211,3.922 36.8824211,4.75 L38.8264211,4.75 C38.7004211,3.346 38.1964211,2.32 37.2964211,1.654 C36.4504211,1.006 35.2804211,0.7 33.7864211,0.7 C32.4184211,0.7 31.2844211,1.006 30.3844211,1.618 C29.4304211,2.266 28.9624211,3.148 28.9624211,4.282 C28.9624211,5.398 29.4484211,6.262 30.4384211,6.856 C30.8344211,7.072 31.8064211,7.414 33.3904211,7.918 C34.8124211,8.35 35.6584211,8.638 35.9464211,8.782 C36.7564211,9.196 37.1704211,9.754 37.1704211,10.474 C37.1704211,11.05 36.8824211,11.5 36.3064211,11.824 C35.7304211,12.148 34.9564211,12.328 33.9844211,12.328 C32.9044211,12.328 32.1124211,12.13 31.5904211,11.734 C31.0144211,11.302 30.6544211,10.564 30.5104211,9.556 L28.5664211,9.556 C28.6744211,11.176 29.2504211,12.364 30.3124211,13.12 C31.1944211,13.732 32.4184211,14.056 33.9844211,14.056 Z M48.5786316,13.804 L48.5786316,8.8 L51.9086316,8.8 C54.9866316,8.8 56.5346316,7.486 56.5346316,4.858 C56.5346316,2.248 55.0046316,0.952 51.9446316,0.952 L46.6166316,0.952 L46.6166316,13.804 L48.5786316,13.804 Z M51.7826316,7.126 L48.5786316,7.126 L48.5786316,2.626 L51.7826316,2.626 C52.7366316,2.626 53.4386316,2.806 53.8886316,3.166 C54.3386316,3.49 54.5726316,4.066 54.5726316,4.858 C54.5726316,5.65 54.3386316,6.226 53.9066316,6.586 C53.4566316,6.946 52.7546316,7.126 51.7826316,7.126 Z M69.3468421,14.056 C71.0388421,14.056 72.3348421,13.606 73.2528421,12.742 C74.1708421,11.86 74.6388421,10.582 74.6388421,8.908 L74.6388421,0.952 L72.6768421,0.952 L72.6768421,8.944 C72.6768421,10.096 72.4068421,10.942 71.8848421,11.5 C71.3448421,12.058 70.4988421,12.346 69.3468421,12.346 C68.1768421,12.346 67.3308421,12.058 66.7908421,11.5 C66.2508421,10.942 65.9988421,10.096 65.9988421,8.944 L65.9988421,0.952 L64.0368421,0.952 L64.0368421,8.908 C64.0368421,10.582 64.5048421,11.86 65.4408421,12.76 C66.3408421,13.624 67.6368421,14.056 69.3468421,14.056 Z M84.8050526,13.804 L84.8050526,8.494 L88.2790526,8.494 C89.0170526,8.494 89.5750526,8.638 89.9710526,8.962 C90.3490526,9.286 90.5830526,9.79 90.6550526,10.51 L90.8170526,12.112 C90.8890526,12.832 91.0690526,13.408 91.3750526,13.804 L93.4990526,13.804 C93.0670526,13.336 92.8150526,12.706 92.7430526,11.914 L92.5270526,9.862 C92.3830526,8.602 91.7530526,7.846 90.6010526,7.594 L90.6010526,7.558 C91.3030526,7.378 91.8610526,7 92.2750526,6.424 C92.6350526,5.902 92.8150526,5.308 92.8150526,4.624 C92.8150526,3.4 92.4190526,2.482 91.6270526,1.834 C90.8710526,1.24 89.8270526,0.952 88.5310526,0.952 L82.8430526,0.952 L82.8430526,13.804 L84.8050526,13.804 Z M88.2790526,6.82 L84.8050526,6.82 L84.8050526,2.626 L88.2610526,2.626 C89.1610526,2.626 89.8090526,2.788 90.2410526,3.13 C90.6370526,3.454 90.8530526,3.976 90.8530526,4.696 C90.8530526,5.38 90.6370526,5.902 90.2230526,6.262 C89.7910526,6.622 89.1430526,6.82 88.2790526,6.82 Z" id="INSPUR" fill="#677B80"></path>
        </g>
    </g>
</svg>