
<svg width="149px" height="149px" viewBox="0 0 149 149" version="1.1" xmlns="http://www.w3.org/2000/svg" xmlns:xlink="http://www.w3.org/1999/xlink">
    <g id="Page-1" stroke="none" stroke-width="1" fill="none" fill-rule="evenodd">
        <path d="M74.5069844,0 C54.2738154,0 51.7345806,0.0884696716 43.7878311,0.450108855 C35.8566027,0.813300139 30.4428796,2.06894863 25.7058719,3.91129074 C20.8058938,5.81416473 16.6493713,8.35960791 12.5083699,12.5021615 C8.36426421,16.6431629 5.81882103,20.7996854 3.90973864,25.6981114 C2.06274024,30.4366712 0.805539641,35.8519464 0.448556756,43.7800706 C0.0931259701,51.7268201 0,54.267607 0,74.500776 C0,94.7339451 0.0900217711,97.2654194 0.450108855,105.212169 C0.814852238,113.143397 2.07050073,118.55712 3.91129074,123.294128 C5.81571683,128.194106 8.36116001,132.350629 12.5037136,136.49163 C16.6431629,140.635736 20.7996854,143.187387 25.6965593,145.090261 C30.4366712,146.932603 35.8519464,148.188252 43.7816227,148.551443 C51.7283722,148.913082 54.2660549,149.001552 74.4976719,149.001552 C94.732393,149.001552 97.2638673,148.913082 105.210617,148.551443 C113.141845,148.188252 118.561777,146.932603 123.301889,145.090261 C128.200315,143.187387 132.350629,140.635736 136.490078,136.49163 C140.634184,132.350629 143.179627,128.194106 145.088709,123.29568 C146.920187,118.55712 148.177387,113.141845 148.549891,105.213721 C148.906874,97.2669715 149,94.7339451 149,74.500776 C149,54.267607 148.906874,51.7283722 148.549891,43.7816227 C148.177387,35.8503943 146.920187,30.4366712 145.088709,25.6996635 C143.179627,20.7996854 140.634184,16.6431629 136.490078,12.5021615 C132.345972,8.35805581 128.201867,5.81261263 123.297232,3.91129074 C118.547808,2.06894863 113.130981,0.813300139 105.199752,0.450108855 C97.2530026,0.0884696716 94.7230804,2.20566605e-14 74.483703,2.20566605e-14 L74.5069844,0 Z M67.823644,13.4256607 C69.8072272,13.4225565 72.020521,13.4256607 74.5069844,13.4256607 C94.3986917,13.4256607 96.7563308,13.4970573 104.611506,13.8540401 C111.875332,14.1861894 115.817665,15.3999312 118.443817,16.4196606 C121.92052,17.7699872 124.399223,19.3841707 127.005198,21.9916978 C129.612725,24.599225 131.226909,27.0825842 132.580339,30.5592871 C133.600069,33.1823352 134.815363,37.124668 135.14596,44.3884936 C135.502943,52.2421171 135.580548,54.6013083 135.580548,74.483703 C135.580548,94.3660976 135.502943,96.7252888 135.14596,104.578912 C134.813811,111.842738 133.600069,115.785071 132.580339,118.408119 C131.230013,121.884822 129.612725,124.36042 127.005198,126.966395 C124.397671,129.573923 121.922072,131.188106 118.443817,132.538433 C115.820769,133.562818 111.875332,134.773456 104.611506,135.105605 C96.7578829,135.462588 94.3986917,135.540193 74.5069844,135.540193 C54.6137251,135.540193 52.256086,135.462588 44.4024625,135.105605 C37.1386369,134.770352 33.1963041,133.55661 30.5685997,132.536881 C27.0918968,131.186554 24.6085376,129.572371 22.0010104,126.964843 C19.3934833,124.357316 17.7792998,121.880165 16.425869,118.40191 C15.4061396,115.778862 14.1908457,111.83653 13.8602485,104.572704 C13.5032657,96.7190804 13.4318691,94.3598892 13.4318691,74.4650778 C13.4318691,54.5702664 13.5032657,52.2234919 13.8602485,44.3698684 C14.1923978,37.1060428 15.4061396,33.16371 16.425869,30.5375577 C17.7761956,27.0608548 19.3934833,24.5774956 22.0010104,21.9699684 C24.6085376,19.3624413 27.0918968,17.7482578 30.5685997,16.394827 C33.194752,15.3704414 37.1386369,14.1598037 44.4024625,13.8261024 C51.2751591,13.5156825 53.9385619,13.4225565 67.823644,13.4070355 L67.823644,13.4256607 Z M114.274878,25.7958937 C109.339201,25.7958937 105.334785,29.7956541 105.334785,34.7328826 C105.334785,39.668559 109.339201,43.6729758 114.274878,43.6729758 C119.210554,43.6729758 123.214971,39.668559 123.214971,34.7328826 C123.214971,29.7972062 119.210554,25.7927895 114.274878,25.7927895 L114.274878,25.7958937 Z M74.5069844,36.2415233 C53.3782539,36.2415233 36.2477317,53.3720455 36.2477317,74.500776 C36.2477317,95.6295066 53.3782539,112.752268 74.5069844,112.752268 C95.635715,112.752268 112.760029,95.6295066 112.760029,74.500776 C112.760029,53.3720455 95.6341629,36.2415233 74.5054323,36.2415233 L74.5069844,36.2415233 Z M74.5069844,49.667184 C88.2213356,49.667184 99.3405765,60.7848728 99.3405765,74.500776 C99.3405765,88.2151272 88.2213356,99.3343681 74.5069844,99.3343681 C60.7910812,99.3343681 49.6733924,88.2151272 49.6733924,74.500776 C49.6733924,60.7848728 60.7910812,49.667184 74.5069844,49.667184 Z" id="Shape" fill="#677B8C" fill-rule="nonzero"></path>
    </g>
</svg>