<svg width="28px" height="28px" viewBox="0 0 28 28" version="1.1" xmlns="http://www.w3.org/2000/svg" xmlns:xlink="http://www.w3.org/1999/xlink">
    <defs>
        <path d="M16.196929,27.8286204 L16.196929,18.0061731 L19.4444018,18.0061731 L20.073852,14.0430854 L16.196929,14.0430854 L16.196929,11.4169554 C16.196929,10.3097837 16.7298696,9.21848032 18.4689708,9.21848032 L20.2461538,9.21848032 L20.2461538,5.72114954 C19.1702055,5.52552287 18.1216567,5.42770954 17.1005077,5.42770954 C13.9026489,5.42770954 11.8030766,7.4068269 11.8030766,10.9156244 L11.8030766,14.0430854 L8.27076923,14.0430854 L8.27076923,18.0061731 L11.8030766,18.0061731 L11.8030766,27.8286213 C5.11476227,26.7744853 0,20.9845414 0,14 C0,6.268024 6.268024,0 14,0 C21.731976,0 28,6.268024 28,14 C28,20.9845395 22.8852406,26.774482 16.196929,27.8286204 Z" id="path-1"></path>
    </defs>
    <g id="Page-1" stroke="none" stroke-width="1" fill="none" fill-rule="evenodd">
        <mask id="mask-2" fill="white">
            <use xlink:href="#path-1"></use>
        </mask>
        <use id="Fill-1" fill="#677B8C" xlink:href="#path-1"></use>
    </g>
</svg>